<svg width="140" height="36" viewBox="0 0 140 36" fill="none" xmlns="http://www.w3.org/2000/svg">
<g clip-path="url(#clip0_11_303)">
<mask id="path-1-inside-1_11_303" fill="white">
<path fill-rule="evenodd" clip-rule="evenodd" d="M61 19H0V23H5V36H9V23H61V19Z"/>
</mask>
<path fill-rule="evenodd" clip-rule="evenodd" d="M61 19H0V23H5V36H9V23H61V19Z" fill="#FEB73D"/>
<path d="M0 19V18.5H-0.5V19H0ZM61 19H61.5V18.5H61V19ZM0 23H-0.5V23.5H0V23ZM5 23H5.5V22.5H5V23ZM5 36H4.5V36.5H5V36ZM9 36V36.5H9.5V36H9ZM9 23V22.5H8.5V23H9ZM61 23V23.5H61.5V23H61ZM0 19.5H61V18.5H0V19.5ZM0.5 23V19H-0.5V23H0.5ZM5 22.5H0V23.5H5V22.5ZM5.5 36V23H4.5V36H5.5ZM9 35.5H5V36.5H9V35.5ZM8.5 23V36H9.5V23H8.5ZM61 22.5H9V23.5H61V22.5ZM60.5 19V23H61.5V19H60.5Z" fill="#1B3954" mask="url(#path-1-inside-1_11_303)"/>
<path d="M14.0156 24.625H18.2578C19.1276 24.625 19.875 24.7552 20.5 25.0156C21.1302 25.276 21.6146 25.6615 21.9531 26.1719C22.2917 26.6823 22.4609 27.3099 22.4609 28.0547C22.4609 28.6641 22.3568 29.1875 22.1484 29.625C21.9453 30.0573 21.6562 30.4193 21.2812 30.7109C20.9115 30.9974 20.4766 31.2266 19.9766 31.3984L19.2344 31.7891H15.5469L15.5312 29.9609H18.2734C18.6849 29.9609 19.026 29.888 19.2969 29.7422C19.5677 29.5964 19.7708 29.3932 19.9062 29.1328C20.0469 28.8724 20.1172 28.5703 20.1172 28.2266C20.1172 27.862 20.0495 27.5469 19.9141 27.2812C19.7786 27.0156 19.5729 26.8125 19.2969 26.6719C19.0208 26.5312 18.6745 26.4609 18.2578 26.4609H16.3594V36H14.0156V24.625ZM20.375 36L17.7812 30.9297L20.2578 30.9141L22.8828 35.8906V36H20.375ZM28.8906 26.5703L25.7969 36H23.3047L27.5312 24.625H29.1172L28.8906 26.5703ZM31.4609 36L28.3594 26.5703L28.1094 24.625H29.7109L33.9609 36H31.4609ZM31.3203 31.7656V33.6016H25.3125V31.7656H31.3203ZM38.4766 33.625L41.1562 24.625H43.7656L39.8047 36H38.0859L38.4766 33.625ZM36.0078 24.625L38.6797 33.625L39.0859 36H37.3516L33.4141 24.625H36.0078ZM52.4609 34.1719V36H46.4062V34.1719H52.4609ZM47.1719 24.625V36H44.8281V24.625H47.1719ZM51.6719 29.2578V31.0391H46.4062V29.2578H51.6719ZM52.4531 24.625V26.4609H46.4062V24.625H52.4531ZM61.1406 34.1719V36H55.4141V34.1719H61.1406ZM56.1719 24.625V36H53.8281V24.625H56.1719ZM71.0938 26.5703L68 36H65.5078L69.7344 24.625H71.3203L71.0938 26.5703ZM73.6641 36L70.5625 26.5703L70.3125 24.625H71.9141L76.1641 36H73.6641ZM73.5234 31.7656V33.6016H67.5156V31.7656H73.5234ZM86.0938 30.0547V34.5625C85.9167 34.776 85.6432 35.0078 85.2734 35.2578C84.9036 35.5026 84.4271 35.7135 83.8438 35.8906C83.2604 36.0677 82.5547 36.1562 81.7266 36.1562C80.9922 36.1562 80.3229 36.0365 79.7188 35.7969C79.1146 35.5521 78.5938 35.1953 78.1562 34.7266C77.724 34.2578 77.3906 33.6849 77.1562 33.0078C76.9219 32.3255 76.8047 31.5469 76.8047 30.6719V29.9609C76.8047 29.0859 76.9167 28.3073 77.1406 27.625C77.3698 26.9427 77.6953 26.3672 78.1172 25.8984C78.5391 25.4297 79.0417 25.0729 79.625 24.8281C80.2083 24.5833 80.8568 24.4609 81.5703 24.4609C82.5599 24.4609 83.3724 24.6224 84.0078 24.9453C84.6432 25.263 85.1276 25.7057 85.4609 26.2734C85.7995 26.8359 86.0078 27.4818 86.0859 28.2109H83.8125C83.7552 27.8255 83.6458 27.4896 83.4844 27.2031C83.3229 26.9167 83.0911 26.6927 82.7891 26.5312C82.4922 26.3698 82.1068 26.2891 81.6328 26.2891C81.2422 26.2891 80.8932 26.3698 80.5859 26.5312C80.2839 26.6875 80.0286 26.9193 79.8203 27.2266C79.612 27.5339 79.4531 27.9141 79.3438 28.3672C79.2344 28.8203 79.1797 29.3464 79.1797 29.9453V30.6719C79.1797 31.2656 79.237 31.7917 79.3516 32.25C79.4661 32.7031 79.6354 33.0859 79.8594 33.3984C80.0885 33.7057 80.3698 33.9375 80.7031 34.0938C81.0365 34.25 81.4245 34.3281 81.8672 34.3281C82.237 34.3281 82.5443 34.2969 82.7891 34.2344C83.0391 34.1719 83.2396 34.0964 83.3906 34.0078C83.5469 33.9141 83.6667 33.8255 83.75 33.7422V31.7266H81.6094V30.0547H86.0938ZM95.6172 34.1719V36H89.5625V34.1719H95.6172ZM90.3281 24.625V36H87.9844V24.625H90.3281ZM94.8281 29.2578V31.0391H89.5625V29.2578H94.8281ZM95.6094 24.625V26.4609H89.5625V24.625H95.6094ZM106.242 24.625V36H103.898L99.3281 28.375V36H96.9844V24.625H99.3281L103.906 32.2578V24.625H106.242ZM114.875 32.2266H117.211C117.164 32.9922 116.953 33.6719 116.578 34.2656C116.208 34.8594 115.69 35.3229 115.023 35.6562C114.362 35.9896 113.565 36.1562 112.633 36.1562C111.904 36.1562 111.25 36.0312 110.672 35.7812C110.094 35.526 109.599 35.1615 109.188 34.6875C108.781 34.2135 108.471 33.6406 108.258 32.9688C108.044 32.2969 107.938 31.5443 107.938 30.7109V29.9219C107.938 29.0885 108.047 28.3359 108.266 27.6641C108.49 26.987 108.807 26.4115 109.219 25.9375C109.635 25.4635 110.133 25.099 110.711 24.8438C111.289 24.5885 111.935 24.4609 112.648 24.4609C113.596 24.4609 114.396 24.6328 115.047 24.9766C115.703 25.3203 116.211 25.7943 116.57 26.3984C116.935 27.0026 117.154 27.6901 117.227 28.4609H114.883C114.857 28.0026 114.766 27.6146 114.609 27.2969C114.453 26.974 114.216 26.7318 113.898 26.5703C113.586 26.4036 113.169 26.3203 112.648 26.3203C112.258 26.3203 111.917 26.3932 111.625 26.5391C111.333 26.6849 111.089 26.9062 110.891 27.2031C110.693 27.5 110.544 27.875 110.445 28.3281C110.352 28.776 110.305 29.3021 110.305 29.9062V30.7109C110.305 31.2995 110.349 31.8177 110.438 32.2656C110.526 32.7083 110.661 33.0833 110.844 33.3906C111.031 33.6927 111.271 33.9219 111.562 34.0781C111.859 34.2292 112.216 34.3047 112.633 34.3047C113.122 34.3047 113.526 34.2266 113.844 34.0703C114.161 33.9141 114.404 33.6823 114.57 33.375C114.742 33.0677 114.844 32.6849 114.875 32.2266ZM120.312 24.625L122.688 29.8125L125.062 24.625H127.617L123.875 31.8594V36H121.5V31.8594L117.75 24.625H120.312Z" fill="#1B3954"/>
<path d="M9.032 14.018H5.6V18H0.32V1.5H8.636C12.42 1.5 14.312 3.53133 14.312 7.594C14.312 8.48867 14.224 9.32467 14.048 10.102C13.872 10.8793 13.5713 11.5613 13.146 12.148C12.7353 12.72 12.1927 13.1747 11.518 13.512C10.858 13.8493 10.0293 14.018 9.032 14.018ZM6.81 5.724H5.6V9.794H6.81C7.45533 9.794 7.91733 9.728 8.196 9.596C8.48933 9.464 8.636 9.156 8.636 8.672V6.824C8.636 6.35467 8.48933 6.054 8.196 5.922C7.91733 5.79 7.45533 5.724 6.81 5.724ZM16.6442 9.772C16.6442 8.26133 16.7688 6.96333 17.0182 5.878C17.2822 4.778 17.7148 3.876 18.3162 3.172C18.9322 2.468 19.7388 1.94733 20.7362 1.61C21.7335 1.27267 22.9655 1.104 24.4322 1.104C25.9135 1.104 27.1455 1.27267 28.1282 1.61C29.1255 1.94733 29.9248 2.468 30.5262 3.172C31.1422 3.876 31.5748 4.778 31.8242 5.878C32.0882 6.96333 32.2202 8.26133 32.2202 9.772C32.2202 11.2093 32.1028 12.4707 31.8682 13.556C31.6335 14.6267 31.2155 15.5213 30.6142 16.24C30.0275 16.9587 29.2282 17.5013 28.2162 17.868C27.2188 18.22 25.9575 18.396 24.4322 18.396C22.9068 18.396 21.6382 18.22 20.6262 17.868C19.6288 17.5013 18.8295 16.9587 18.2282 16.24C17.6415 15.5213 17.2308 14.6267 16.9962 13.556C16.7615 12.4707 16.6442 11.2093 16.6442 9.772ZM22.3202 7.022V13.886H24.5202C25.2535 13.886 25.7742 13.8053 26.0822 13.644C26.4048 13.468 26.5662 13.0793 26.5662 12.478V5.614H24.3442C23.6402 5.614 23.1268 5.702 22.8042 5.878C22.4815 6.03933 22.3202 6.42067 22.3202 7.022ZM44.3171 14.018H40.8851V18H35.6051V1.5H43.9211C47.7051 1.5 49.5971 3.53133 49.5971 7.594C49.5971 8.48867 49.5091 9.32467 49.3331 10.102C49.1571 10.8793 48.8564 11.5613 48.4311 12.148C48.0204 12.72 47.4777 13.1747 46.8031 13.512C46.1431 13.8493 45.3144 14.018 44.3171 14.018ZM42.0951 5.724H40.8851V9.794H42.0951C42.7404 9.794 43.2024 9.728 43.4811 9.596C43.7744 9.464 43.9211 9.156 43.9211 8.672V6.824C43.9211 6.35467 43.7744 6.054 43.4811 5.922C43.2024 5.79 42.7404 5.724 42.0951 5.724ZM63.2812 7.946H58.0012V5.724H63.6772L64.3372 1.5H52.7212V18H64.4692V13.776H58.0012V11.774H63.2812V7.946ZM82.7676 18V1.5H77.4876V7.33H73.5276V1.5H68.2476V18H73.5276V12.17H77.4876V18H82.7676ZM92.2336 18V1.5H86.9536V18H92.2336ZM106.189 7.946H101.701V5.724H106.585L107.245 1.5H96.4213V18H101.701V11.884H106.189V7.946ZM120.939 13.776H115.659V1.5H110.379V18H120.939V13.776ZM123.137 9.772C123.137 8.26133 123.262 6.96333 123.511 5.878C123.775 4.778 124.208 3.876 124.809 3.172C125.425 2.468 126.232 1.94733 127.229 1.61C128.226 1.27267 129.458 1.104 130.925 1.104C132.406 1.104 133.638 1.27267 134.621 1.61C135.618 1.94733 136.418 2.468 137.019 3.172C137.635 3.876 138.068 4.778 138.317 5.878C138.581 6.96333 138.713 8.26133 138.713 9.772C138.713 11.2093 138.596 12.4707 138.361 13.556C138.126 14.6267 137.708 15.5213 137.107 16.24C136.52 16.9587 135.721 17.5013 134.709 17.868C133.712 18.22 132.45 18.396 130.925 18.396C129.4 18.396 128.131 18.22 127.119 17.868C126.122 17.5013 125.322 16.9587 124.721 16.24C124.134 15.5213 123.724 14.6267 123.489 13.556C123.254 12.4707 123.137 11.2093 123.137 9.772ZM128.813 7.022V13.886H131.013C131.746 13.886 132.267 13.8053 132.575 13.644C132.898 13.468 133.059 13.0793 133.059 12.478V5.614H130.837C130.133 5.614 129.62 5.702 129.297 5.878C128.974 6.03933 128.813 6.42067 128.813 7.022Z" fill="#1B3954"/>
</g>
<defs>
<clipPath id="clip0_11_303">
<rect width="140" height="36" fill="white"/>
</clipPath>
</defs>
</svg>
